<svg width="2563" height="779" viewBox="0 0 2563 779" fill="none" xmlns="http://www.w3.org/2000/svg">
<g clip-path="url(#clip0_771_240)">
<path d="M1000 0H0V778H1000V0Z" fill="#78256F"/>
<path d="M556.86 536.35C571.31 518.54 583.03 498.47 591.98 476.17C603.78 446.75 609.71 415.1 609.71 381.21C609.71 347.32 603.79 315.12 591.98 285.91C580.17 256.71 563.56 231.31 542.16 209.67C520.76 188.06 495.68 171.12 466.93 158.85C438.18 146.59 406.63 140.46 372.3 140.46C337.97 140.46 306.98 146.6 278 158.85C249.02 171.12 223.84 188.06 202.44 209.67C181.03 231.31 164.42 256.71 152.61 285.91C140.8 315.12 134.89 346.89 134.89 381.21C134.89 415.53 140.79 446.75 152.61 476.17C164.42 505.59 181.03 531.11 202.44 552.74C223.84 574.36 249.02 591.3 278 603.56C306.98 615.82 338.42 621.95 372.3 621.95C406.18 621.95 438.18 615.81 466.93 603.56C486.15 595.36 503.73 585.08 519.67 572.71L562.23 615.27H635.78L556.86 536.35ZM463.59 541.04C437.05 557.1 406.63 565.12 372.3 565.12C337.97 565.12 308.1 557.1 281.35 541.04C254.6 524.99 233.53 503.15 218.16 475.51C202.78 447.87 195.08 416.43 195.08 381.21C195.08 345.99 202.78 314.57 218.16 286.91C233.54 259.28 254.6 237.43 281.35 221.38C308.1 205.32 338.42 197.3 372.3 197.3C406.18 197.3 437.06 205.32 463.59 221.38C490.1 237.43 511.06 259.28 526.44 286.91C541.83 314.57 549.52 345.99 549.52 381.21C549.52 416.43 541.83 447.86 526.44 475.51C522.81 482.04 518.87 488.23 514.62 494.11L435.16 414.65H361.61L478.17 531.21C473.52 534.71 468.66 537.98 463.6 541.04H463.59Z" fill="white"/>
<path d="M865.1 140.46V621.95H808.26V140.46H865.1Z" fill="white"/>
</g>
<path d="M1206.26 697.386C1202.26 693.265 1197.55 690.047 1192.15 687.731C1186.74 685.435 1180.85 684.277 1174.45 684.277C1168.05 684.277 1162.17 685.435 1156.75 687.731C1151.33 690.027 1146.64 693.245 1142.64 697.386C1138.64 701.527 1135.53 706.375 1133.32 711.948C1131.1 717.522 1130 723.605 1130 730.16C1130 736.715 1131.1 742.799 1133.32 748.372C1135.53 753.946 1138.64 758.813 1142.64 762.934C1146.64 767.075 1151.35 770.274 1156.75 772.589C1162.17 774.886 1168.05 776.043 1174.45 776.043C1180.85 776.043 1186.74 774.886 1192.15 772.589C1197.57 770.293 1202.26 767.075 1206.26 762.934C1210.27 758.793 1213.37 753.946 1215.58 748.372C1217.8 742.799 1218.9 736.735 1218.9 730.16C1218.9 723.586 1217.8 717.541 1215.58 711.948C1213.37 706.375 1210.27 701.508 1206.26 697.386ZM1206.64 750.099C1203.48 755.967 1199.12 760.599 1193.55 763.954C1187.97 767.33 1181.59 768.998 1174.45 768.998C1167.31 768.998 1160.93 767.31 1155.36 763.954C1149.78 760.599 1145.39 755.967 1142.19 750.099C1138.99 744.231 1137.4 737.578 1137.4 730.16C1137.4 722.742 1138.99 715.991 1142.19 710.162C1145.39 704.334 1149.76 699.722 1155.36 696.366C1160.93 693.01 1167.31 691.322 1174.45 691.322C1181.59 691.322 1187.97 693.01 1193.55 696.366C1199.12 699.741 1203.5 704.334 1206.64 710.162C1209.8 715.991 1211.37 722.663 1211.37 730.16C1211.37 737.657 1209.8 744.212 1206.64 750.099Z" fill="#78256F"/>
<path d="M1244.71 685.454H1241V774.885H1248.02V729.786H1282.66V723.134H1248.02V692.087H1283.94V685.454H1248.02H1244.71Z" fill="#78256F"/>
<path d="M1411.44 722.879H1359.18V685.454H1352.16V774.885H1359.18V729.531H1411.44V774.885H1418.61V685.454H1411.44V722.879Z" fill="#78256F"/>
<path d="M1452.58 685.454H1445.55V774.885H1452.58V685.454Z" fill="#78256F"/>
<path d="M1521.32 736.931H1553.39C1552.96 741.268 1551.86 745.37 1550.07 749.196C1548.29 753.023 1545.91 756.438 1542.99 759.421C1540.05 762.404 1536.57 764.739 1532.57 766.447C1528.56 768.154 1524.05 768.998 1519.03 768.998C1511.96 768.998 1505.62 767.33 1500.05 764.013C1494.48 760.697 1490.04 756.104 1486.76 750.276C1483.49 744.447 1481.84 737.735 1481.84 730.16C1481.84 722.585 1483.49 715.775 1486.76 709.966C1490.04 704.177 1494.5 699.624 1500.11 696.287C1505.72 692.951 1512.04 691.303 1519.03 691.303C1526.01 691.303 1532.57 692.833 1537.95 695.895C1543.3 698.956 1547.48 702.96 1550.47 707.905L1555.57 703.431C1553.02 699.427 1549.96 695.993 1546.36 693.147C1542.79 690.302 1538.71 688.104 1534.16 686.573C1529.6 685.042 1524.56 684.277 1519.03 684.277C1512.63 684.277 1506.74 685.415 1501.32 687.672C1495.91 689.929 1491.18 693.108 1487.14 697.19C1483.09 701.272 1479.95 706.139 1477.74 711.752C1475.52 717.365 1474.42 723.507 1474.42 730.16C1474.42 736.813 1475.52 742.936 1477.74 748.549C1479.95 754.162 1483.07 759.029 1487.14 763.111C1491.18 767.193 1495.91 770.372 1501.32 772.629C1506.74 774.886 1512.63 776.024 1519.03 776.024C1525.42 776.024 1531.47 774.787 1536.65 772.315C1541.85 769.842 1546.27 766.486 1549.94 762.227C1553.61 757.969 1556.37 753.082 1558.24 747.607C1560.1 742.112 1561.04 736.342 1561.04 730.298H1521.3V736.95L1521.32 736.931Z" fill="#78256F"/>
<path d="M1643.1 722.879H1590.84V685.454H1583.81V774.885H1590.84V729.531H1643.1V774.885H1650.24V685.454H1643.1V722.879Z" fill="#78256F"/>
<path d="M1681.17 685.454H1677.46V774.885H1681.17H1684.48H1725.5V768.232H1684.48V729.139H1722.93V722.506H1684.48V692.087H1725.5V685.454H1684.48H1681.17Z" fill="#78256F"/>
<path d="M1787.4 734.32C1791.95 732.319 1795.56 729.355 1798.19 725.45C1800.82 721.525 1802.16 716.854 1802.16 711.398C1802.16 705.943 1800.84 701.174 1798.19 697.347C1795.54 693.52 1791.95 690.576 1787.4 688.535C1782.85 686.494 1777.67 685.474 1771.88 685.474H1751.43V774.905H1758.45V737.343H1770.19L1796.29 774.905H1804.98L1777.8 736.911C1781.26 736.459 1784.48 735.616 1787.42 734.34L1787.4 734.32ZM1758.45 691.714H1771.88C1776.39 691.714 1780.39 692.48 1783.89 694.011C1787.38 695.541 1790.13 697.759 1792.13 700.663C1794.13 703.568 1795.13 707.14 1795.13 711.398C1795.13 715.657 1794.15 719.248 1792.19 722.192C1790.23 725.136 1787.48 727.353 1783.95 728.845C1780.41 730.336 1776.39 731.082 1771.88 731.082H1758.45V691.734V691.714Z" fill="#78256F"/>
<path d="M1871.79 685.454H1868.08V774.885H1871.79H1875.1H1916.12V768.232H1875.1V729.139H1913.57V722.506H1875.1V692.087H1916.12V685.454H1875.1H1871.79Z" fill="#78256F"/>
<path d="M1989.26 691.066C1982.67 687.318 1975.01 685.454 1966.32 685.454H1942.04V774.885H1966.32C1975.01 774.885 1982.65 773.02 1989.26 769.272C1995.86 765.524 2001.02 760.303 2004.73 753.611C2008.44 746.919 2010.28 739.108 2010.28 730.159C2010.28 721.21 2008.44 713.4 2004.73 706.707C2001.02 700.015 1995.88 694.815 1989.26 691.047V691.066ZM2000.65 745.683C1998.9 750.334 1996.41 754.279 1993.17 757.556C1989.93 760.833 1986.02 763.365 1981.47 765.151C1976.92 766.937 1971.87 767.839 1966.32 767.839H1949.07V692.46H1966.32C1971.86 692.46 1976.9 693.363 1981.47 695.148C1986.02 696.934 1989.93 699.466 1993.17 702.743C1996.41 706.021 1998.9 709.985 2000.65 714.616C2002.39 719.267 2003.26 724.429 2003.26 730.14C2003.26 735.851 2002.37 741.012 2000.65 745.663V745.683Z" fill="#78256F"/>
<path d="M2081.97 746.016C2081.97 753.18 2080.09 758.871 2076.36 763.129C2072.61 767.388 2067.29 769.527 2060.38 769.527C2053.47 769.527 2048.16 767.408 2044.41 763.129C2040.66 758.871 2038.8 753.16 2038.8 746.016V685.454H2031.77V746.016C2031.77 750.452 2032.42 754.514 2033.69 758.223C2034.97 761.932 2036.85 765.112 2039.31 767.741C2041.78 770.391 2044.78 772.451 2048.31 773.943C2051.85 775.434 2055.87 776.18 2060.38 776.18C2064.9 776.18 2068.92 775.434 2072.45 773.943C2075.98 772.451 2078.99 770.391 2081.46 767.741C2083.93 765.092 2085.8 761.932 2087.07 758.223C2088.35 754.514 2089 750.452 2089 746.016V685.454H2081.97V746.016Z" fill="#78256F"/>
<path d="M2154.15 684.296C2147.93 684.296 2142.16 685.434 2136.84 687.691C2131.52 689.948 2126.89 693.127 2122.99 697.209C2119.06 701.291 2116 706.158 2113.78 711.771C2111.56 717.384 2110.46 723.526 2110.46 730.179C2110.46 736.832 2111.56 742.955 2113.78 748.568C2116 754.181 2119.06 759.048 2122.99 763.13C2126.91 767.212 2131.52 770.391 2136.84 772.648C2142.16 774.905 2147.93 776.043 2154.15 776.043C2160.7 776.043 2166.2 775.219 2170.64 773.55C2175.07 771.882 2179.15 769.39 2182.9 766.073V756.614C2180.68 759.165 2178.15 761.383 2175.31 763.267C2172.46 765.151 2169.28 766.544 2165.79 767.486C2162.29 768.428 2158.43 768.899 2154.17 768.899C2147.44 768.899 2141.35 767.231 2135.9 763.915C2130.44 760.598 2126.11 756.045 2122.87 750.236C2119.63 744.447 2118.02 737.754 2118.02 730.179C2118.02 722.604 2119.63 715.794 2122.87 709.985C2126.11 704.196 2130.44 699.662 2135.9 696.385C2141.35 693.108 2147.44 691.459 2154.17 691.459C2158.35 691.459 2162.18 691.93 2165.67 692.872C2169.16 693.814 2172.36 695.188 2175.25 697.033C2178.15 698.858 2180.7 701.056 2182.92 703.607V694.285C2179.17 690.968 2175.09 688.476 2170.65 686.808C2166.22 685.14 2160.72 684.316 2154.17 684.316L2154.15 684.296Z" fill="#78256F"/>
<path d="M2197.33 774.885H2205.26L2217.52 744.859H2256.03L2268.37 774.885H2276.3L2236.81 682L2197.33 774.885ZM2253.34 738.206H2220.39L2236.81 698.21L2253.34 738.206Z" fill="#78256F"/>
<path d="M2276.04 692.087H2299.55V774.885H2306.58V692.087H2330.09V685.454H2276.04V692.087Z" fill="#78256F"/>
<path d="M2355.13 685.454H2348.1V774.885H2355.13V685.454Z" fill="#78256F"/>
<path d="M2453.26 697.386C2449.25 693.265 2444.54 690.047 2439.15 687.731C2433.73 685.435 2427.84 684.277 2421.44 684.277C2415.05 684.277 2409.16 685.435 2403.74 687.731C2398.33 690.027 2393.64 693.245 2389.63 697.386C2385.63 701.527 2382.53 706.375 2380.31 711.948C2378.09 717.522 2376.99 723.605 2376.99 730.16C2376.99 736.715 2378.09 742.799 2380.31 748.372C2382.53 753.946 2385.63 758.813 2389.63 762.934C2393.64 767.075 2398.35 770.274 2403.74 772.589C2409.16 774.886 2415.05 776.043 2421.44 776.043C2427.84 776.043 2433.73 774.886 2439.15 772.589C2444.56 770.293 2449.25 767.075 2453.26 762.934C2457.26 758.793 2460.36 753.946 2462.58 748.372C2464.8 742.799 2465.89 736.735 2465.89 730.16C2465.89 723.586 2464.8 717.541 2462.58 711.948C2460.36 706.375 2457.26 701.508 2453.26 697.386ZM2453.63 750.099C2450.47 755.967 2446.11 760.599 2440.54 763.954C2434.97 767.33 2428.59 768.998 2421.44 768.998C2414.3 768.998 2407.92 767.31 2402.35 763.954C2396.78 760.599 2392.38 755.967 2389.18 750.099C2385.98 744.231 2384.39 737.578 2384.39 730.16C2384.39 722.742 2385.98 715.991 2389.18 710.162C2392.38 704.334 2396.76 699.722 2402.35 696.366C2407.92 693.01 2414.3 691.322 2421.44 691.322C2428.59 691.322 2434.97 693.01 2440.54 696.366C2446.11 699.741 2450.49 704.334 2453.63 710.162C2456.79 715.991 2458.36 722.663 2458.36 730.16C2458.36 737.657 2456.79 744.212 2453.63 750.099Z" fill="#78256F"/>
<path d="M2555.97 685.454V760.323L2488.01 682V774.885H2495.04V700.271L2563 778.339V685.454H2555.97Z" fill="#78256F"/>
<path d="M1322.07 171.775C1326.92 159.65 1329.36 146.485 1329.36 132.32C1329.36 118.155 1326.88 104.789 1321.95 92.8646C1316.99 80.94 1310.11 70.5361 1301.23 61.7327C1292.34 52.9294 1281.86 46.1667 1269.85 41.4048C1257.81 36.643 1244.6 34.2822 1230.24 34.2822C1215.87 34.2822 1202.91 36.683 1190.78 41.4048C1178.66 46.1667 1168.01 52.9294 1158.85 61.7327C1149.69 70.5361 1142.6 80.9 1137.56 92.8646C1132.52 104.829 1130 117.954 1130 132.32C1130 146.686 1132.48 159.65 1137.4 171.775C1142.32 183.9 1149.33 194.464 1158.41 203.427C1167.49 212.391 1178.1 219.354 1190.34 224.315C1202.55 229.237 1215.83 231.718 1230.2 231.718C1244.56 231.718 1258.05 229.237 1270.05 224.315C1276.9 221.514 1283.18 217.953 1289.02 213.831L1304.79 229.037H1347.6L1309.99 193.263C1314.83 186.741 1318.87 179.618 1322.03 171.775H1322.07ZM1232.36 196.665C1220.88 196.665 1210.43 193.984 1201.11 188.582C1191.78 183.18 1184.34 175.657 1178.9 165.973C1173.42 156.289 1170.7 145.045 1170.7 132.28C1170.7 120.235 1173.26 109.551 1178.38 100.228C1183.5 90.904 1190.5 83.5411 1199.39 78.139C1208.27 72.7369 1218.55 70.056 1230.24 70.056C1242.8 70.056 1253.73 73.017 1262.97 78.9393C1272.21 84.8616 1279.34 92.7846 1284.38 102.628C1289.42 112.512 1291.94 123.557 1291.94 135.761C1291.94 147.966 1289.42 158.37 1284.38 167.534C1284.22 167.814 1284.06 168.014 1283.9 168.294L1260.13 145.725H1218.39L1263.33 188.982C1254.37 194.064 1244.04 196.625 1232.4 196.625L1232.36 196.665Z" fill="#78256F"/>
<path d="M1483.94 162.211C1483.94 172.975 1481.09 181.659 1475.45 188.221C1469.81 194.784 1461.41 198.065 1450.28 198.065C1439.16 198.065 1430.76 194.784 1425.11 188.221C1419.47 181.659 1416.63 173.015 1416.63 162.211V38.0435H1378.09V164.652C1378.09 175.776 1379.9 185.58 1383.5 194.023C1387.1 202.467 1392.1 209.55 1398.58 215.312C1405.07 221.074 1412.67 225.396 1421.47 228.357C1430.27 231.318 1439.88 232.798 1450.28 232.798C1460.69 232.798 1470.05 231.318 1478.85 228.357C1487.66 225.396 1495.34 221.034 1501.9 215.312C1508.46 209.55 1513.55 202.467 1517.11 194.023C1520.71 185.58 1522.51 175.816 1522.51 164.652V38.0435H1483.98V162.211H1483.94Z" fill="#78256F"/>
<path d="M1553.72 226.597H1597.1L1616.79 183.78H1681.45L1701.34 226.597H1745L1649.36 27L1553.72 226.597ZM1672.73 153.289H1625.75L1649.36 99.1477L1672.77 153.289H1672.73Z" fill="#78256F"/>
<path d="M1911.74 154.929L1777.57 28.6001V226.597H1814.74V109.671L1948.92 236V38.0039H1911.74V154.929Z" fill="#78256F"/>
<path d="M1983.13 72.7778H2033.75V226.597H2072.28V72.7778H2123.18V38.0044H1983.13V72.7778Z" fill="#78256F"/>
<path d="M2261.63 162.211C2261.63 172.975 2258.79 181.659 2253.15 188.221C2247.51 194.784 2239.11 198.065 2227.98 198.065C2216.86 198.065 2208.45 194.784 2202.81 188.221C2197.17 181.659 2194.33 173.015 2194.33 162.211V38.0435H2155.79V164.652C2155.79 175.776 2157.59 185.58 2161.2 194.023C2164.8 202.467 2169.8 209.55 2176.28 215.312C2182.76 221.074 2190.37 225.396 2199.17 228.357C2207.97 231.318 2217.58 232.798 2227.98 232.798C2238.39 232.798 2247.75 231.318 2256.55 228.357C2265.36 225.396 2273.04 221.034 2279.6 215.312C2286.16 209.55 2291.25 202.467 2294.81 194.023C2298.41 185.58 2300.21 175.816 2300.21 164.652V38.0435H2261.67V162.211H2261.63Z" fill="#78256F"/>
<path d="M2447.79 150.327L2368.88 28.6001L2340.83 226.597H2381L2393.09 120.716L2447.79 209.07L2502.49 120.716L2514.61 226.597H2554.75L2526.74 28.6001L2447.79 150.327Z" fill="#78256F"/>
<path d="M1170.3 361.704H1130V556.256H1170.3V361.704Z" fill="#78256F"/>
<path d="M1363.2 482.349L1224.8 352V556.297H1263.16V435.651L1401.56 566V361.703H1363.2V482.349Z" fill="#78256F"/>
<path d="M1575.71 463.025C1571.01 458.318 1565.72 454.272 1559.86 450.928C1554.04 447.583 1547.97 444.817 1541.65 442.587C1531.82 439.243 1523.69 435.981 1517.21 432.719C1510.72 429.499 1505.89 426.03 1502.76 422.438C1499.62 418.805 1498.05 414.593 1498.05 409.804C1498.05 405.014 1499.99 400.762 1503.87 397.17C1507.75 393.577 1513.61 391.761 1521.38 391.761C1527.32 391.761 1532.57 392.917 1537.23 395.229C1541.86 397.541 1545.98 400.597 1549.62 404.395C1553.25 408.194 1556.35 412.405 1558.95 417.029L1590.08 399.812C1586.74 392.958 1582.07 386.352 1576.04 379.952C1570.01 373.552 1562.5 368.268 1553.54 364.097C1544.54 359.927 1533.85 357.863 1521.42 357.863C1508.99 357.863 1498.5 360.051 1488.76 364.386C1479.01 368.763 1471.33 374.956 1465.68 383.008C1460.02 391.059 1457.21 400.638 1457.21 411.786C1457.21 421.035 1458.99 428.962 1462.5 435.568C1466.01 442.133 1470.47 447.707 1475.84 452.249C1481.2 456.791 1486.9 460.507 1492.93 463.356C1498.96 466.246 1504.28 468.517 1508.91 470.168C1517.62 473.513 1524.97 476.609 1531 479.499C1537.03 482.39 1541.57 485.652 1544.62 489.368C1547.68 493.084 1549.21 497.997 1549.21 504.108C1549.21 511.168 1546.69 516.701 1541.69 520.788C1536.69 524.876 1530.21 526.899 1522.24 526.899C1515.39 526.899 1508.99 525.413 1503.04 522.44C1497.1 519.467 1491.69 515.297 1486.78 509.929C1481.86 504.562 1477.36 498.245 1473.32 491.019L1444.95 511.044C1449.2 520.128 1455.15 528.551 1462.75 536.354C1470.34 544.158 1479.3 550.31 1489.58 554.852C1499.87 559.393 1510.93 561.664 1522.78 561.664C1531.66 561.664 1540.16 560.302 1548.21 557.618C1556.27 554.934 1563.53 551.053 1570.01 545.933C1576.5 540.855 1581.58 534.579 1585.29 527.188C1589.01 519.798 1590.87 511.333 1590.87 501.878C1590.87 493.538 1589.5 486.188 1586.82 479.789C1584.14 473.389 1580.42 467.856 1575.71 463.108V463.025Z" fill="#78256F"/>
<path d="M1616.43 397.584H1668.66V556.298H1708.42V397.584H1760.94V361.704H1616.43V397.584Z" fill="#78256F"/>
<path d="M1836.29 361.704H1795.99V556.256H1836.29V361.704Z" fill="#78256F"/>
<path d="M1871.3 397.584H1923.53V556.298H1963.29V397.584H2015.81V361.704H1871.3V397.584Z" fill="#78256F"/>
<path d="M2158.71 489.863C2158.71 500.969 2155.78 509.929 2149.96 516.7C2144.14 523.472 2135.47 526.858 2123.99 526.858C2112.51 526.858 2103.84 523.472 2098.02 516.7C2092.2 509.929 2089.26 501.011 2089.26 489.863V361.744H2049.5V492.381C2049.5 503.86 2051.36 513.975 2055.08 522.687C2058.79 531.399 2063.95 538.707 2070.64 544.653C2077.33 550.599 2085.18 555.058 2094.26 558.113C2103.34 561.169 2113.25 562.696 2123.99 562.696C2134.72 562.696 2144.38 561.169 2153.47 558.113C2162.55 555.058 2170.48 550.557 2177.25 544.653C2184.02 538.707 2189.27 531.399 2192.94 522.687C2196.66 513.975 2198.51 503.901 2198.51 492.381V361.744H2158.75V489.863H2158.71Z" fill="#78256F"/>
<path d="M2232.08 397.584H2284.31V556.298H2324.07V397.584H2376.59V361.704H2232.08V397.584Z" fill="#78256F"/>
<path d="M2535.31 395.354V361.704H2449.96H2437.2H2411.61V556.298H2437.2H2449.96H2535.31V522.647H2449.96V469.55H2529.73V436.478H2449.96V395.354H2535.31Z" fill="#78256F"/>
<defs>
<clipPath id="clip0_771_240">
<rect width="1000" height="778" fill="white"/>
</clipPath>
</defs>
</svg>
