<?xml version="1.0" encoding="UTF-8"?>
<svg id="Layer_1" data-name="Layer 1" xmlns="http://www.w3.org/2000/svg" viewBox="0 0 1000 1000">
  <defs>
    <style>
      .cls-1 {
        fill: #fff;
      }

      .cls-2 {
        fill: #78256f;
      }
    </style>
  </defs>
  <rect class="cls-2" width="1000" height="1000"/>
  <g>
    <g>
      <path class="cls-1" d="M556.86,536.35c14.45-17.81,26.17-37.88,35.12-60.18,11.8-29.42,17.73-61.07,17.73-94.96s-5.92-66.09-17.73-95.3c-11.81-29.2-28.42-54.6-49.82-76.24-21.4-21.61-46.48-38.55-75.23-50.82-28.75-12.26-60.3-18.39-94.63-18.39s-65.32,6.14-94.3,18.39c-28.98,12.27-54.16,29.21-75.56,50.82-21.41,21.64-38.02,47.04-49.83,76.24-11.81,29.21-17.72,60.98-17.72,95.3s5.9,65.54,17.72,94.96c11.81,29.42,28.42,54.94,49.83,76.57,21.4,21.62,46.58,38.56,75.56,50.82,28.98,12.26,60.42,18.39,94.3,18.39s65.88-6.14,94.63-18.39c19.22-8.2,36.8-18.48,52.74-30.85l42.56,42.56h73.55l-78.92-78.92ZM463.59,541.04c-26.54,16.06-56.96,24.08-91.29,24.08s-64.2-8.02-90.95-24.08c-26.75-16.05-47.82-37.89-63.19-65.53-15.38-27.64-23.08-59.08-23.08-94.3s7.7-66.64,23.08-94.3c15.38-27.63,36.44-49.48,63.19-65.53,26.75-16.06,57.07-24.08,90.95-24.08s64.76,8.02,91.29,24.08c26.51,16.05,47.47,37.9,62.85,65.53,15.39,27.66,23.08,59.08,23.08,94.3s-7.69,66.65-23.08,94.3c-3.63,6.53-7.57,12.72-11.82,18.6l-79.46-79.46h-73.55l116.56,116.56c-4.65,3.5-9.51,6.77-14.57,9.83Z"/>
      <path class="cls-1" d="M865.1,140.46v481.49h-56.84V140.46h56.84Z"/>
    </g>
    <g>
      <path class="cls-1" d="M182.9,749.63c1.21-3.03,1.82-6.32,1.82-9.86s-.62-6.88-1.85-9.86c-1.24-2.98-2.96-5.58-5.18-7.78-2.22-2.2-4.84-3.89-7.84-5.08-3.01-1.19-6.31-1.78-9.9-1.78s-6.83.6-9.86,1.78c-3.03,1.19-5.69,2.88-7.98,5.08-2.29,2.2-4.06,4.79-5.32,7.78-1.26,2.99-1.89,6.27-1.89,9.86s.62,6.83,1.85,9.86c1.23,3.03,2.98,5.67,5.25,7.91,2.27,2.24,4.92,3.98,7.98,5.22,3.05,1.23,6.37,1.85,9.96,1.85s6.96-.62,9.96-1.85c1.71-.7,3.28-1.59,4.74-2.62l3.94,3.8h10.7l-9.4-8.94c1.21-1.63,2.22-3.41,3.01-5.37ZM160.48,755.85c-2.87,0-5.48-.67-7.81-2.02-2.33-1.35-4.19-3.23-5.55-5.65-1.37-2.42-2.05-5.23-2.05-8.42,0-3.01.64-5.68,1.92-8.01,1.28-2.33,3.03-4.17,5.25-5.52,2.22-1.35,4.79-2.02,7.71-2.02,3.14,0,5.87.74,8.18,2.22,2.31,1.48,4.09,3.46,5.35,5.92,1.26,2.47,1.89,5.23,1.89,8.28s-.63,5.65-1.89,7.94c-.04.07-.08.12-.12.19l-5.94-5.64h-10.43l11.23,10.81c-2.24,1.27-4.82,1.91-7.73,1.91Z"/>
      <path class="cls-1" d="M223.35,747.24c0,2.69-.71,4.86-2.12,6.5-1.41,1.64-3.51,2.46-6.29,2.46s-4.88-.82-6.29-2.46c-1.41-1.64-2.12-3.8-2.12-6.5v-31.03h-9.63v31.64c0,2.78.45,5.23,1.35,7.34.9,2.11,2.15,3.88,3.77,5.32,1.62,1.44,3.52,2.52,5.72,3.26,2.2.74,4.6,1.11,7.2,1.11s4.94-.37,7.14-1.11c2.2-.74,4.12-1.83,5.76-3.26,1.64-1.44,2.91-3.21,3.8-5.32.9-2.11,1.35-4.55,1.35-7.34v-31.64h-9.63v31.03Z"/>
      <path class="cls-1" d="M240.79,763.33h10.84l4.92-10.7h16.16l4.97,10.7h10.91l-23.9-49.88-23.9,49.88ZM270.53,745.01h-11.74l5.9-13.53,5.85,13.53Z"/>
      <polygon class="cls-1" points="330.26 745.42 296.73 713.85 296.73 763.33 306.02 763.33 306.02 734.11 339.55 765.68 339.55 716.2 330.26 716.2 330.26 745.42"/>
      <polygon class="cls-1" points="348.1 724.89 360.75 724.89 360.75 763.33 370.38 763.33 370.38 724.89 383.1 724.89 383.1 716.2 348.1 716.2 348.1 724.89"/>
      <path class="cls-1" d="M417.7,747.24c0,2.69-.71,4.86-2.12,6.5-1.41,1.64-3.51,2.46-6.29,2.46s-4.88-.82-6.29-2.46c-1.41-1.64-2.12-3.8-2.12-6.5v-31.03h-9.63v31.64c0,2.78.45,5.23,1.35,7.34.9,2.11,2.15,3.88,3.77,5.32,1.62,1.44,3.52,2.52,5.72,3.26,2.2.74,4.6,1.11,7.2,1.11s4.94-.37,7.14-1.11c2.2-.74,4.12-1.83,5.76-3.26,1.64-1.44,2.91-3.21,3.8-5.32.9-2.11,1.35-4.55,1.35-7.34v-31.64h-9.63v31.03Z"/>
      <polygon class="cls-1" points="464.22 744.27 444.5 713.85 437.49 763.33 447.53 763.33 450.55 736.87 464.22 758.95 477.89 736.87 480.92 763.33 490.95 763.33 483.95 713.85 464.22 744.27"/>
      <rect class="cls-1" x="524.74" y="716.2" width="9.76" height="47.12"/>
      <polygon class="cls-1" points="581.22 745.42 547.7 713.85 547.7 763.33 556.99 763.33 556.99 734.11 590.51 765.68 590.51 716.2 581.22 716.2 581.22 745.42"/>
      <path class="cls-1" d="M632.69,740.74c-1.14-1.14-2.42-2.12-3.84-2.93-1.41-.81-2.88-1.48-4.41-2.02-2.38-.81-4.35-1.6-5.92-2.39-1.57-.78-2.74-1.62-3.5-2.49-.76-.88-1.14-1.9-1.14-3.06s.47-2.19,1.41-3.06c.94-.87,2.36-1.31,4.24-1.31,1.44,0,2.71.28,3.84.84,1.12.56,2.12,1.3,3,2.22.88.92,1.63,1.94,2.26,3.06l7.54-4.17c-.81-1.66-1.94-3.26-3.4-4.81-1.46-1.55-3.28-2.83-5.45-3.84-2.18-1.01-4.77-1.51-7.78-1.51s-5.55.53-7.91,1.58c-2.36,1.06-4.22,2.56-5.59,4.51-1.37,1.95-2.05,4.27-2.05,6.97,0,2.24.43,4.16,1.28,5.76.85,1.59,1.93,2.94,3.23,4.04,1.3,1.1,2.68,2,4.14,2.69,1.46.7,2.75,1.25,3.87,1.65,2.11.81,3.89,1.56,5.35,2.26,1.46.7,2.56,1.49,3.3,2.39.74.9,1.11,2.09,1.11,3.57,0,1.71-.61,3.05-1.82,4.04-1.21.99-2.78,1.48-4.71,1.48-1.66,0-3.21-.36-4.65-1.08-1.44-.72-2.75-1.73-3.94-3.03-1.19-1.3-2.28-2.83-3.26-4.58l-6.87,4.85c1.03,2.2,2.47,4.24,4.31,6.13,1.84,1.89,4.01,3.38,6.5,4.48,2.49,1.1,5.17,1.65,8.04,1.65,2.15,0,4.21-.33,6.16-.98,1.95-.65,3.71-1.59,5.28-2.83,1.57-1.23,2.8-2.75,3.7-4.54.9-1.79,1.35-3.84,1.35-6.13,0-2.02-.33-3.8-.98-5.35-.65-1.55-1.55-2.89-2.69-4.04Z"/>
      <polygon class="cls-1" points="642.55 724.89 655.2 724.89 655.2 763.33 664.83 763.33 664.83 724.89 677.55 724.89 677.55 716.2 642.55 716.2 642.55 724.89"/>
      <rect class="cls-1" x="686.04" y="716.2" width="9.76" height="47.12"/>
      <polygon class="cls-1" points="704.28 724.89 716.93 724.89 716.93 763.33 726.56 763.33 726.56 724.89 739.28 724.89 739.28 716.2 704.28 716.2 704.28 724.89"/>
      <path class="cls-1" d="M773.89,747.24c0,2.69-.71,4.86-2.12,6.5-1.41,1.64-3.51,2.46-6.29,2.46s-4.88-.82-6.29-2.46c-1.41-1.64-2.12-3.8-2.12-6.5v-31.03h-9.63v31.64c0,2.78.45,5.23,1.35,7.34.9,2.11,2.15,3.88,3.77,5.32,1.62,1.44,3.52,2.52,5.72,3.26,2.2.74,4.6,1.11,7.2,1.11s4.94-.37,7.14-1.11c2.2-.74,4.12-1.83,5.76-3.26,1.64-1.44,2.91-3.21,3.8-5.32.9-2.11,1.35-4.55,1.35-7.34v-31.64h-9.63v31.03Z"/>
      <polygon class="cls-1" points="791.66 724.89 804.31 724.89 804.31 763.33 813.94 763.33 813.94 724.89 826.66 724.89 826.66 716.2 791.66 716.2 791.66 724.89"/>
      <polygon class="cls-1" points="865.1 724.35 865.1 716.2 844.43 716.2 841.34 716.2 835.14 716.2 835.14 763.33 841.34 763.33 844.43 763.33 865.1 763.33 865.1 755.18 844.43 755.18 844.43 742.32 863.75 742.32 863.75 734.31 844.43 734.31 844.43 724.35 865.1 724.35"/>
    </g>
    <g>
      <path class="cls-1" d="M173.77,818.29c-2.04-2.1-4.44-3.74-7.19-4.92-2.76-1.17-5.76-1.76-9.02-1.76s-6.26.59-9.02,1.76c-2.76,1.17-5.15,2.81-7.19,4.92-2.04,2.11-3.62,4.58-4.75,7.42-1.13,2.84-1.69,5.94-1.69,9.28s.56,6.44,1.69,9.28c1.13,2.84,2.71,5.32,4.75,7.42,2.04,2.11,4.44,3.74,7.19,4.92,2.76,1.17,5.76,1.76,9.02,1.76s6.26-.59,9.02-1.76c2.76-1.17,5.15-2.81,7.19-4.92,2.04-2.11,3.62-4.58,4.75-7.42,1.13-2.84,1.69-5.93,1.69-9.28s-.56-6.43-1.69-9.28c-1.13-2.84-2.71-5.32-4.75-7.42ZM173.96,845.15c-1.61,2.99-3.83,5.35-6.67,7.06-2.84,1.72-6.09,2.57-9.73,2.57s-6.89-.86-9.73-2.57c-2.84-1.71-5.08-4.07-6.71-7.06-1.63-2.99-2.44-6.38-2.44-10.16s.81-7.22,2.44-10.19c1.63-2.97,3.86-5.32,6.71-7.03,2.84-1.71,6.09-2.57,9.73-2.57s6.89.86,9.73,2.57c2.84,1.72,5.07,4.06,6.67,7.03,1.61,2.97,2.41,6.37,2.41,10.19s-.8,7.16-2.41,10.16Z"/>
      <polygon class="cls-1" points="193.36 812.21 191.47 812.21 191.47 857.78 195.05 857.78 195.05 834.8 212.7 834.8 212.7 831.41 195.05 831.41 195.05 815.59 213.35 815.59 213.35 812.21 195.05 812.21 193.36 812.21"/>
      <polygon class="cls-1" points="278.32 831.28 251.69 831.28 251.69 812.21 248.11 812.21 248.11 857.78 251.69 857.78 251.69 834.67 278.32 834.67 278.32 857.78 281.97 857.78 281.97 812.21 278.32 812.21 278.32 831.28"/>
      <rect class="cls-1" x="295.7" y="812.21" width="3.58" height="45.57"/>
      <path class="cls-1" d="M334.31,838.44h16.34c-.22,2.21-.78,4.3-1.69,6.25s-2.12,3.69-3.61,5.21c-1.5,1.52-3.27,2.71-5.31,3.58-2.04.87-4.34,1.3-6.9,1.3-3.6,0-6.83-.85-9.67-2.54-2.84-1.69-5.1-4.03-6.77-7-1.67-2.97-2.51-6.39-2.51-10.25s.84-7.33,2.51-10.29c1.67-2.95,3.94-5.27,6.8-6.97s6.08-2.54,9.64-2.54,6.9.78,9.64,2.34c2.73,1.56,4.86,3.6,6.38,6.12l2.6-2.28c-1.3-2.04-2.86-3.79-4.69-5.24-1.82-1.45-3.9-2.57-6.22-3.35-2.32-.78-4.89-1.17-7.71-1.17-3.26,0-6.26.58-9.02,1.73-2.76,1.15-5.17,2.77-7.23,4.85-2.06,2.08-3.66,4.56-4.79,7.42-1.13,2.86-1.69,5.99-1.69,9.38s.56,6.51,1.69,9.37c1.13,2.86,2.72,5.34,4.79,7.42,2.06,2.08,4.47,3.7,7.23,4.85,2.76,1.15,5.76,1.73,9.02,1.73s6.34-.63,8.98-1.89c2.65-1.26,4.9-2.97,6.77-5.14,1.87-2.17,3.28-4.66,4.23-7.45.95-2.8,1.43-5.74,1.43-8.82h-20.25v3.39Z"/>
      <polygon class="cls-1" points="396.36 831.28 369.73 831.28 369.73 812.21 366.15 812.21 366.15 857.78 369.73 857.78 369.73 834.67 396.36 834.67 396.36 857.78 400 857.78 400 812.21 396.36 812.21 396.36 831.28"/>
      <polygon class="cls-1" points="415.76 812.21 413.87 812.21 413.87 857.78 415.76 857.78 417.45 857.78 438.35 857.78 438.35 854.39 417.45 854.39 417.45 834.47 437.04 834.47 437.04 831.09 417.45 831.09 417.45 815.59 438.35 815.59 438.35 812.21 417.45 812.21 415.76 812.21"/>
      <path class="cls-1" d="M469.89,837.11c2.32-1.02,4.16-2.53,5.5-4.52,1.34-2,2.02-4.38,2.02-7.16s-.67-5.21-2.02-7.16c-1.35-1.95-3.18-3.45-5.5-4.49-2.32-1.04-4.96-1.56-7.91-1.56h-10.42v45.57h3.58v-19.14h5.98l13.3,19.14h4.43l-13.85-19.36c1.76-.23,3.4-.66,4.9-1.31ZM455.14,815.4h6.84c2.3,0,4.34.39,6.12,1.17,1.78.78,3.18,1.91,4.2,3.39,1.02,1.48,1.53,3.3,1.53,5.47s-.5,4-1.5,5.5c-1,1.5-2.4,2.63-4.2,3.39-1.8.76-3.85,1.14-6.15,1.14h-6.84v-20.05Z"/>
      <polygon class="cls-1" points="512.89 812.21 511 812.21 511 857.78 512.89 857.78 514.58 857.78 535.48 857.78 535.48 854.39 514.58 854.39 514.58 834.47 534.18 834.47 534.18 831.09 514.58 831.09 514.58 815.59 535.48 815.59 535.48 812.21 514.58 812.21 512.89 812.21"/>
      <path class="cls-1" d="M572.75,815.07c-3.36-1.91-7.26-2.86-11.69-2.86h-12.37v45.57h12.37c4.43,0,8.32-.95,11.69-2.86,3.36-1.91,5.99-4.57,7.88-7.98,1.89-3.41,2.83-7.39,2.83-11.95s-.94-8.54-2.83-11.95c-1.89-3.41-4.51-6.06-7.88-7.98ZM578.55,842.9c-.89,2.37-2.16,4.38-3.81,6.05-1.65,1.67-3.64,2.96-5.96,3.87-2.32.91-4.89,1.37-7.72,1.37h-8.79v-38.41h8.79c2.82,0,5.39.46,7.72,1.37,2.32.91,4.31,2.2,5.96,3.87,1.65,1.67,2.92,3.69,3.81,6.05.89,2.37,1.33,5,1.33,7.91s-.45,5.54-1.33,7.91Z"/>
      <path class="cls-1" d="M619.99,843.07c0,3.65-.96,6.55-2.86,8.72-1.91,2.17-4.62,3.26-8.14,3.26s-6.23-1.08-8.14-3.26c-1.91-2.17-2.86-5.08-2.86-8.72v-30.86h-3.58v30.86c0,2.26.33,4.33.98,6.22.65,1.89,1.61,3.51,2.86,4.85,1.26,1.35,2.79,2.4,4.59,3.16,1.8.76,3.85,1.14,6.15,1.14s4.35-.38,6.15-1.14c1.8-.76,3.33-1.81,4.59-3.16,1.26-1.35,2.21-2.96,2.86-4.85.65-1.89.98-3.96.98-6.22v-30.86h-3.58v30.86Z"/>
      <path class="cls-1" d="M656.77,811.62c-3.17,0-6.11.58-8.82,1.73-2.71,1.15-5.07,2.77-7.06,4.85-2,2.08-3.56,4.56-4.69,7.42-1.13,2.86-1.69,5.99-1.69,9.38s.56,6.51,1.69,9.37c1.13,2.86,2.69,5.34,4.69,7.42,2,2.08,4.35,3.7,7.06,4.85,2.71,1.15,5.65,1.73,8.82,1.73,3.34,0,6.14-.42,8.4-1.27,2.26-.85,4.34-2.12,6.25-3.81v-4.82c-1.13,1.3-2.42,2.43-3.87,3.39-1.45.96-3.07,1.67-4.85,2.15-1.78.48-3.75.72-5.92.72-3.43,0-6.53-.85-9.31-2.54-2.78-1.69-4.99-4.01-6.64-6.97-1.65-2.95-2.47-6.36-2.47-10.22s.82-7.33,2.47-10.29c1.65-2.95,3.86-5.26,6.64-6.93,2.78-1.67,5.88-2.51,9.31-2.51,2.13,0,4.08.24,5.86.72,1.78.48,3.41,1.18,4.88,2.12,1.48.93,2.78,2.05,3.91,3.35v-4.75c-1.91-1.69-3.99-2.96-6.25-3.81-2.26-.85-5.06-1.27-8.4-1.27Z"/>
      <path class="cls-1" d="M678.77,857.78h4.04l6.25-15.3h19.62l6.29,15.3h4.04l-20.12-47.33-20.12,47.33ZM707.31,839.09h-16.79l8.37-20.38,8.42,20.38Z"/>
      <polygon class="cls-1" points="718.88 815.59 730.86 815.59 730.86 857.78 734.44 857.78 734.44 815.59 746.42 815.59 746.42 812.21 718.88 812.21 718.88 815.59"/>
      <rect class="cls-1" x="755.6" y="812.21" width="3.58" height="45.57"/>
      <path class="cls-1" d="M809.18,818.29c-2.04-2.1-4.44-3.74-7.19-4.92-2.76-1.17-5.76-1.76-9.02-1.76s-6.26.59-9.02,1.76c-2.76,1.17-5.15,2.81-7.19,4.92-2.04,2.11-3.62,4.58-4.75,7.42-1.13,2.84-1.69,5.94-1.69,9.28s.56,6.44,1.69,9.28c1.13,2.84,2.71,5.32,4.75,7.42,2.04,2.11,4.44,3.74,7.19,4.92,2.76,1.17,5.76,1.76,9.02,1.76s6.26-.59,9.02-1.76c2.76-1.17,5.15-2.81,7.19-4.92,2.04-2.11,3.62-4.58,4.75-7.42,1.13-2.84,1.69-5.93,1.69-9.28s-.56-6.43-1.69-9.28c-1.13-2.84-2.71-5.32-4.75-7.42ZM809.37,845.15c-1.61,2.99-3.83,5.35-6.67,7.06-2.84,1.72-6.09,2.57-9.73,2.57s-6.89-.86-9.73-2.57c-2.84-1.71-5.08-4.07-6.71-7.06-1.63-2.99-2.44-6.38-2.44-10.16s.81-7.22,2.44-10.19c1.63-2.97,3.86-5.32,6.71-7.03,2.84-1.71,6.09-2.57,9.73-2.57s6.89.86,9.73,2.57c2.84,1.72,5.07,4.06,6.67,7.03,1.61,2.97,2.41,6.37,2.41,10.19s-.8,7.16-2.41,10.16Z"/>
      <polygon class="cls-1" points="861.52 812.21 861.52 850.36 826.89 810.45 826.89 857.78 830.47 857.78 830.47 819.76 865.1 859.54 865.1 812.21 861.52 812.21"/>
    </g>
  </g>
</svg>